<svg xmlns="http://www.w3.org/2000/svg" xml:space="preserve" width="6.88976in" height="5.51339in" version="1.1" style="shape-rendering:geometricPrecision; text-rendering:geometricPrecision; image-rendering:optimizeQuality; fill-rule:evenodd; clip-rule:evenodd"
viewBox="0 0 10049.21 8041.68"
 xmlns:xlink="http://www.w3.org/1999/xlink"
 xmlns:xodm="http://www.corel.com/coreldraw/odm/2003">
 <defs>
  <style type="text/css">
   <![CDATA[
    .fil0 {fill:black;fill-rule:nonzero}
   ]]>
  </style>
 </defs>
 <g id="Layer_x0020_1">
  <metadata id="CorelCorpID_0Corel-Layer"/>
  <path id="__xd83c__xdfa8_-Color" class="fil0" d="M3894.07 4270.92l-1758.61 0c-190.78,0 -348.45,141.77 -373.41,325.71l-3.44 51.14 0 247.09 3.96 54.45c81.7,559.51 549.82,829.47 1252.17,829.47 668.86,0 1125.3,-244.61 1237.91,-750.97l14.3 -77.92 3.97 -54.54 0 -247.58c0,-190.78 -141.77,-348.45 -325.71,-373.41l-51.14 -3.44zm4019.69 249.29l-2259.92 0 -51.14 3.44c-183.94,24.96 -325.71,182.63 -325.71,373.41 0,190.79 141.77,348.46 325.71,373.41l51.14 3.44 2259.92 0 51.14 -3.44c183.94,-24.95 325.71,-182.62 325.71,-373.41 0,-190.78 -141.77,-348.45 -325.71,-373.41l-51.14 -3.44zm-4898.99 -2258.04c-416.24,0 -753.68,337.43 -753.68,753.68 0,416.24 337.44,753.67 753.68,753.67 416.24,0 753.68,-337.43 753.68,-753.67 0,-416.25 -337.44,-753.68 -753.68,-753.68zm4898.99 501.36l-2259.92 0 -51.14 3.44c-183.94,24.96 -325.71,182.63 -325.71,373.41 0,190.78 141.77,348.45 325.71,373.41l51.14 3.44 2259.92 0 51.14 -3.44c183.94,-24.96 325.71,-182.63 325.71,-373.41 0,-190.78 -141.77,-348.45 -325.71,-373.41l-51.14 -3.44zm1004.92 -2763.53c624.38,0 1130.54,506.16 1130.54,1130.54l0 5780.61c0,624.38 -506.16,1130.54 -1130.54,1130.54l-7788.14 0c-624.38,0 -1130.54,-506.16 -1130.54,-1130.54l0 -5780.61c0,-624.38 506.16,-1130.54 1130.54,-1130.54l7788.14 0z"/>
 </g>
</svg>
