<?xml version="1.0" encoding="utf-8"?>
<!-- Generator: Adobe Illustrator 18.0.0, SVG Export Plug-In . SVG Version: 6.00 Build 0)  -->
<!DOCTYPE svg PUBLIC "-//W3C//DTD SVG 1.1//EN" "http://www.w3.org/Graphics/SVG/1.1/DTD/svg11.dtd">
<svg version="1.1" id="Layer_1" xmlns="http://www.w3.org/2000/svg" xmlns:xlink="http://www.w3.org/1999/xlink" x="0px" y="0px"
	 viewBox="256 346 100 100" enable-background="new 256 346 100 100" xml:space="preserve">
<path fill="#FFFFFF" d="M319.4,396l33.6-33.6c4-4,4-9.4,0-13.4c-4-4-9.4-4-13.4,0L306,382.6L272.4,349c-4-4-9.4-4-13.4,0
	c-4,4-4,9.4,0,13.4l33.6,33.6L259,429.6c-4,4-4,9.4,0,13.4c4,4,9.4,4,13.4,0l33.6-33.6l33.6,33.6c4,4,9.4,4,13.4,0c4-4,4-9.4,0-13.4
	L319.4,396z"/>
</svg>
