<svg xmlns="http://www.w3.org/2000/svg" xml:space="preserve" width="0.445992in" height="0.5in" version="1.1" style="shape-rendering:geometricPrecision; text-rendering:geometricPrecision; image-rendering:optimizeQuality; fill-rule:evenodd; clip-rule:evenodd"
viewBox="0 0 29.29 32.84"

 <g id="Layer_x0020_1">
  <metadata id="CorelCorpID_0Corel-Layer"/>
  <path class="fil0" d="M1.83 0l25.64 0c1.01,0 1.83,0.82 1.83,1.83l0 5.82c0,1.01 -0.82,1.83 -1.83,1.83l-25.64 0c-1.01,0 -1.83,-0.82 -1.83,-1.83l0 -5.82c0,-1.01 0.82,-1.83 1.83,-1.83zm6.23 11.68l13.18 0c1.01,0 1.83,0.82 1.83,1.83l0 5.82c0,1.01 -0.82,1.83 -1.83,1.83l-13.18 0c-1.01,0 -1.83,-0.82 -1.83,-1.83l0 -5.82c0,-1.01 0.82,-1.83 1.83,-1.83zm0 11.68l13.18 0c1.01,0 1.83,0.82 1.83,1.83l0 5.82c0,1.01 -0.82,1.83 -1.83,1.83l-13.18 0c-1.01,0 -1.83,-0.82 -1.83,-1.83l0 -5.82c0,-1.01 0.82,-1.83 1.83,-1.83z"/>
 </g>
</svg>
